<?xml version="1.0" encoding="utf-8" ?>
<svg baseProfile="full" height="1050px" version="1.1" width="1600px" xmlns="http://www.w3.org/2000/svg" xmlns:ev="http://www.w3.org/2001/xml-events" xmlns:xlink="http://www.w3.org/1999/xlink"><defs /><rect fill="#FFF" height="1050" width="1600" x="0" y="0" /><rect fill="none" height="1030" rx="4" stroke="#2C3E50" stroke-width="1.5" width="1580" x="10" y="10" /><text fill="#1A1A1A" font-family="Segoe UI, Arial, sans-serif" font-size="24" font-weight="bold" text-anchor="middle" x="800" y="40">DRONE DESDE CERO v2 — DIAGRAMA DE CONEXIONES</text><rect fill="#E3F2FD" height="500" rx="6" stroke="#2C3E50" stroke-width="2" width="500" x="300" y="80" /><text fill="#1A1A1A" font-family="Segoe UI, Arial, sans-serif" font-size="20" font-weight="bold" text-anchor="middle" x="550" y="105">ARDUINO UNO</text><text fill="#555" font-family="Segoe UI, Arial, sans-serif" font-size="13" font-weight="bold" text-anchor="middle" x="550" y="125">(Flight Controller)</text><line stroke="#2C3E50" stroke-width="1.5" x1="300" x2="300" y1="132" y2="148" /><circle cx="300" cy="140" fill="#2C3E50" r="3" /><text fill="#1A1A1A" font-family="Segoe UI, Arial, sans-serif" font-size="9" font-weight="normal" text-anchor="end" x="294" y="144">D0(RX)</text><line stroke="#2C3E50" stroke-width="1.5" x1="300" x2="300" y1="172" y2="188" /><circle cx="300" cy="180" fill="#2C3E50" r="3" /><text fill="#1A1A1A" font-family="Segoe UI, Arial, sans-serif" font-size="9" font-weight="normal" text-anchor="end" x="294" y="184">D1(TX)</text><line stroke="#2C3E50" stroke-width="1.5" x1="300" x2="300" y1="252" y2="268" /><circle cx="300" cy="260" fill="#2C3E50" r="3" /><text fill="#1A1A1A" font-family="Segoe UI, Arial, sans-serif" font-size="9" font-weight="normal" text-anchor="end" x="294" y="264">D3→ESC1</text><line stroke="#2C3E50" stroke-width="1.5" x1="300" x2="300" y1="312" y2="328" /><circle cx="300" cy="320" fill="#2C3E50" r="3" /><text fill="#1A1A1A" font-family="Segoe UI, Arial, sans-serif" font-size="9" font-weight="normal" text-anchor="end" x="294" y="324">D5→ESC2</text><line stroke="#2C3E50" stroke-width="1.5" x1="300" x2="300" y1="362" y2="378" /><circle cx="300" cy="370" fill="#2C3E50" r="3" /><text fill="#1A1A1A" font-family="Segoe UI, Arial, sans-serif" font-size="9" font-weight="normal" text-anchor="end" x="294" y="374">D6→ESC3</text><line stroke="#2C3E50" stroke-width="1.5" x1="300" x2="300" y1="432" y2="448" /><circle cx="300" cy="440" fill="#2C3E50" r="3" /><text fill="#1A1A1A" font-family="Segoe UI, Arial, sans-serif" font-size="9" font-weight="normal" text-anchor="end" x="294" y="444">D9→ESC4</text><line stroke="#2C3E50" stroke-width="1.5" x1="300" x2="300" y1="482" y2="498" /><circle cx="300" cy="490" fill="#2C3E50" r="3" /><text fill="#1A1A1A" font-family="Segoe UI, Arial, sans-serif" font-size="9" font-weight="normal" text-anchor="end" x="294" y="494">D10→LED1</text><line stroke="#2C3E50" stroke-width="1.5" x1="300" x2="300" y1="532" y2="548" /><circle cx="300" cy="540" fill="#2C3E50" r="3" /><text fill="#1A1A1A" font-family="Segoe UI, Arial, sans-serif" font-size="9" font-weight="normal" text-anchor="end" x="294" y="544">D13→LED2</text><line stroke="#2C3E50" stroke-width="1.5" x1="800" x2="800" y1="142" y2="158" /><circle cx="800" cy="150" fill="#2C3E50" r="3" /><text fill="#1A1A1A" font-family="Segoe UI, Arial, sans-serif" font-size="9" font-weight="normal" text-anchor="start" x="806" y="154">A0(Bat)</text><line stroke="#2C3E50" stroke-width="1.5" x1="800" x2="800" y1="232" y2="248" /><circle cx="800" cy="240" fill="#2C3E50" r="3" /><text fill="#1A1A1A" font-family="Segoe UI, Arial, sans-serif" font-size="9" font-weight="normal" text-anchor="start" x="806" y="244">A4(SDA)</text><line stroke="#2C3E50" stroke-width="1.5" x1="800" x2="800" y1="272" y2="288" /><circle cx="800" cy="280" fill="#2C3E50" r="3" /><text fill="#1A1A1A" font-family="Segoe UI, Arial, sans-serif" font-size="9" font-weight="normal" text-anchor="start" x="806" y="284">A5(SCL)</text><line stroke="#2C3E50" stroke-width="1.5" x1="800" x2="800" y1="352" y2="368" /><circle cx="800" cy="360" fill="#2C3E50" r="3" /><text fill="#1A1A1A" font-family="Segoe UI, Arial, sans-serif" font-size="9" font-weight="normal" text-anchor="start" x="806" y="364">5V(BEC)</text><line stroke="#2C3E50" stroke-width="1.5" x1="800" x2="800" y1="422" y2="438" /><circle cx="800" cy="430" fill="#2C3E50" r="3" /><text fill="#1A1A1A" font-family="Segoe UI, Arial, sans-serif" font-size="9" font-weight="normal" text-anchor="start" x="806" y="434">GND</text><rect fill="#FFF8E1" height="130" rx="6" stroke="#2C3E50" stroke-width="2" width="180" x="30" y="120" /><text fill="#1A1A1A" font-family="Segoe UI, Arial, sans-serif" font-size="15" font-weight="bold" text-anchor="middle" x="120" y="142">ESP32-CAM</text><text fill="#555" font-family="Segoe UI, Arial, sans-serif" font-size="11" font-weight="bold" text-anchor="middle" x="120" y="162">WiFi + OV2640</text><circle cx="210" cy="140" fill="#2C3E50" r="3" /><circle cx="210" cy="180" fill="#2C3E50" r="3" /><text fill="#1A1A1A" font-family="Segoe UI, Arial, sans-serif" font-size="9" font-weight="bold" text-anchor="start" x="214" y="144">TX(GPIO1)</text><text fill="#1A1A1A" font-family="Segoe UI, Arial, sans-serif" font-size="9" font-weight="bold" text-anchor="start" x="214" y="184">RX(GPIO3)</text><text fill="#DC143C" font-family="Segoe UI, Arial, sans-serif" font-size="9" font-weight="bold" text-anchor="middle" x="80" y="262">+5V</text><text fill="#333" font-family="Segoe UI, Arial, sans-serif" font-size="9" font-weight="bold" text-anchor="middle" x="160" y="262">GND</text><line stroke="#333" stroke-width="2" x1="152" x2="168" y1="272" y2="272" /><line stroke="#333" stroke-width="2" x1="156" x2="164" y1="277" y2="277" /><line stroke="#333" stroke-width="2" x1="160" x2="160" y1="282" y2="282" /><rect fill="#E8F5E9" height="130" rx="6" stroke="#2C3E50" stroke-width="2" width="200" x="1200" y="100" /><text fill="#1A1A1A" font-family="Segoe UI, Arial, sans-serif" font-size="15" font-weight="bold" text-anchor="middle" x="1300" y="122">MPU6500</text><text fill="#555" font-family="Segoe UI, Arial, sans-serif" font-size="11" font-weight="bold" text-anchor="middle" x="1300" y="142">6-DOF IMU (0x68)</text><circle cx="1200" cy="240" fill="#2C3E50" r="3" /><circle cx="1200" cy="280" fill="#2C3E50" r="3" /><text fill="#1A1A1A" font-family="Segoe UI, Arial, sans-serif" font-size="9" font-weight="bold" text-anchor="end" x="1196" y="244">SDA</text><text fill="#1A1A1A" font-family="Segoe UI, Arial, sans-serif" font-size="9" font-weight="bold" text-anchor="end" x="1196" y="284">SCL</text><text fill="#DC143C" font-family="Segoe UI, Arial, sans-serif" font-size="9" font-weight="bold" text-anchor="middle" x="1260" y="240">VCC</text><text fill="#333" font-family="Segoe UI, Arial, sans-serif" font-size="9" font-weight="bold" text-anchor="middle" x="1340" y="240">GND</text><line stroke="#333" stroke-width="2" x1="1332" x2="1348" y1="250" y2="250" /><line stroke="#333" stroke-width="2" x1="1336" x2="1344" y1="255" y2="255" /><line stroke="#333" stroke-width="2" x1="1340" x2="1340" y1="260" y2="260" /><rect fill="#E0F7FA" height="65" rx="4" stroke="#2C3E50" stroke-width="1.5" width="200" x="712" y="680" /><text fill="#1A1A1A" font-family="Segoe UI, Arial, sans-serif" font-size="12" font-weight="bold" text-anchor="middle" x="762" y="700">ESC1</text><text fill="#555" font-family="Segoe UI, Arial, sans-serif" font-size="10" font-weight="bold" text-anchor="middle" x="762" y="723">FR(CW)</text><circle cx="887" cy="712" fill="#F5F5F5" r="14" stroke="#444" stroke-width="2" /><text fill="#1A1A1A" font-family="Segoe UI, Arial, sans-serif" font-size="10" font-weight="bold" text-anchor="middle" x="887" y="716">M1</text><path d="M 300,260 L 260,260 L 260,712 L 712,712" fill="none" stroke="#1E6EB8" stroke-width="2" /><text fill="#1E6EB8" font-family="Segoe UI, Arial, sans-serif" font-size="8" font-weight="bold" text-anchor="middle" x="260" y="486">ESC1</text><rect fill="#E0F7FA" height="65" rx="4" stroke="#2C3E50" stroke-width="1.5" width="200" x="487" y="770" /><text fill="#1A1A1A" font-family="Segoe UI, Arial, sans-serif" font-size="12" font-weight="bold" text-anchor="middle" x="537" y="790">ESC2</text><text fill="#555" font-family="Segoe UI, Arial, sans-serif" font-size="10" font-weight="bold" text-anchor="middle" x="537" y="813">RL(CW)</text><circle cx="662" cy="802" fill="#F5F5F5" r="14" stroke="#444" stroke-width="2" /><text fill="#1A1A1A" font-family="Segoe UI, Arial, sans-serif" font-size="10" font-weight="bold" text-anchor="middle" x="662" y="806">M2</text><path d="M 300,320 L 260,320 L 260,802 L 487,802" fill="none" stroke="#1E6EB8" stroke-width="2" /><text fill="#1E6EB8" font-family="Segoe UI, Arial, sans-serif" font-size="8" font-weight="bold" text-anchor="middle" x="260" y="561">ESC2</text><rect fill="#E0F7FA" height="65" rx="4" stroke="#2C3E50" stroke-width="1.5" width="200" x="487" y="680" /><text fill="#1A1A1A" font-family="Segoe UI, Arial, sans-serif" font-size="12" font-weight="bold" text-anchor="middle" x="537" y="700">ESC3</text><text fill="#555" font-family="Segoe UI, Arial, sans-serif" font-size="10" font-weight="bold" text-anchor="middle" x="537" y="723">FL(CCW)</text><circle cx="662" cy="712" fill="#F5F5F5" r="14" stroke="#444" stroke-width="2" /><text fill="#1A1A1A" font-family="Segoe UI, Arial, sans-serif" font-size="10" font-weight="bold" text-anchor="middle" x="662" y="716">M3</text><path d="M 300,370 L 260,370 L 260,712 L 487,712" fill="none" stroke="#1E6EB8" stroke-width="2" /><text fill="#1E6EB8" font-family="Segoe UI, Arial, sans-serif" font-size="8" font-weight="bold" text-anchor="middle" x="260" y="541">ESC3</text><rect fill="#E0F7FA" height="65" rx="4" stroke="#2C3E50" stroke-width="1.5" width="200" x="712" y="770" /><text fill="#1A1A1A" font-family="Segoe UI, Arial, sans-serif" font-size="12" font-weight="bold" text-anchor="middle" x="762" y="790">ESC4</text><text fill="#555" font-family="Segoe UI, Arial, sans-serif" font-size="10" font-weight="bold" text-anchor="middle" x="762" y="813">RR(CCW)</text><circle cx="887" cy="802" fill="#F5F5F5" r="14" stroke="#444" stroke-width="2" /><text fill="#1A1A1A" font-family="Segoe UI, Arial, sans-serif" font-size="10" font-weight="bold" text-anchor="middle" x="887" y="806">M4</text><path d="M 300,440 L 260,440 L 260,802 L 712,802" fill="none" stroke="#1E6EB8" stroke-width="2" /><text fill="#1E6EB8" font-family="Segoe UI, Arial, sans-serif" font-size="8" font-weight="bold" text-anchor="middle" x="260" y="621">ESC4</text><rect fill="#FFEBEE" height="100" rx="6" stroke="#2C3E50" stroke-width="2" width="260" x="380" y="870" /><text fill="#1A1A1A" font-family="Segoe UI, Arial, sans-serif" font-size="12" font-weight="bold" text-anchor="middle" x="510" y="885">BATERIA 3S 11.1V</text><text fill="#555" font-family="Segoe UI, Arial, sans-serif" font-size="9" font-weight="bold" text-anchor="middle" x="510" y="898">Divisor R1/R2 = 2.95:1</text><line stroke="#444" stroke-width="3" x1="502" x2="502" y1="910" y2="926" /><line stroke="#444" stroke-width="2" x1="518" x2="518" y1="912" y2="924" /><text fill="#DC143C" font-family="Segoe UI, Arial, sans-serif" font-size="10" font-weight="bold" text-anchor="end" x="498" y="922">+</text><text fill="#333" font-family="Segoe UI, Arial, sans-serif" font-size="10" font-weight="bold" text-anchor="start" x="522" y="922">-</text><text fill="#1A1A1A" font-family="Segoe UI, Arial, sans-serif" font-size="8" font-weight="normal" text-anchor="middle" x="450" y="940">R1 100kΩ</text><text fill="#1A1A1A" font-family="Segoe UI, Arial, sans-serif" font-size="8" font-weight="normal" text-anchor="middle" x="520" y="940">R2 33kΩ</text><text fill="#555" font-family="Segoe UI, Arial, sans-serif" font-size="8" font-weight="normal" text-anchor="middle" x="510" y="958">A0 = Vbat·R2/(R1+R2) ≈ 4.27V max</text><path d="M 502,918 L 420,918 L 420,936" fill="none" stroke="#DC143C" stroke-width="2" /><path d="M 518,918 L 518,958 L 625,958" fill="none" stroke="#333" stroke-width="2" /><path d="M 432,940 L 535,940" fill="none" stroke="#DC143C" stroke-width="2" /><path d="M 535,940 L 535,958 L 625,958" fill="none" stroke="#333" stroke-width="2" /><line stroke="#333" stroke-width="2" x1="617" x2="633" y1="967" y2="967" /><line stroke="#333" stroke-width="2" x1="621" x2="629" y1="972" y2="972" /><line stroke="#333" stroke-width="2" x1="625" x2="625" y1="977" y2="977" /><path d="M 432,940 L 658,940" fill="none" stroke="#DC143C" stroke-width="2" /><circle cx="658" cy="940" fill="#DC143C" r="3" /><rect fill="#FFFDE7" height="160" rx="6" stroke="#2C3E50" stroke-width="2" width="140" x="200" y="700" /><text fill="#1A1A1A" font-family="Segoe UI, Arial, sans-serif" font-size="13" font-weight="bold" text-anchor="middle" x="270" y="718">LEDs</text><path d="M 228,741 L 232,729 L 236,741 L 240,729 L 244,741 L 248,729 L 252,741" fill="none" stroke="#444" stroke-width="2" /><text fill="#1A1A1A" font-family="Segoe UI, Arial, sans-serif" font-size="8" font-weight="bold" text-anchor="middle" x="240" y="751">220Ω</text><polygon fill="#E74C3C" points="282,731 282,739 298,735" stroke="#444" stroke-width="1.5" /><line stroke="#444" stroke-width="2" x1="296" x2="296" y1="731" y2="739" /><text fill="#1A1A1A" font-family="Segoe UI, Arial, sans-serif" font-size="8" font-weight="bold" text-anchor="start" x="302" y="739">LED1(D10)</text><path d="M 195,735 L 230,735" fill="none" stroke="#8E44AD" stroke-width="2" /><path d="M 250,735 L 282,735" fill="none" stroke="#8E44AD" stroke-width="2" /><path d="M 298,735 L 320,735" fill="none" stroke="#333" stroke-width="2" /><path d="M 320,735 L 320,795" fill="none" stroke="#333" stroke-width="2" /><path d="M 228,801 L 232,789 L 236,801 L 240,789 L 244,801 L 248,789 L 252,801" fill="none" stroke="#444" stroke-width="2" /><text fill="#1A1A1A" font-family="Segoe UI, Arial, sans-serif" font-size="8" font-weight="bold" text-anchor="middle" x="240" y="811">220Ω</text><polygon fill="#E74C3C" points="282,791 282,799 298,795" stroke="#444" stroke-width="1.5" /><line stroke="#444" stroke-width="2" x1="296" x2="296" y1="791" y2="799" /><text fill="#1A1A1A" font-family="Segoe UI, Arial, sans-serif" font-size="8" font-weight="bold" text-anchor="start" x="302" y="799">LED2(D13)</text><path d="M 195,795 L 230,795" fill="none" stroke="#8E44AD" stroke-width="2" /><path d="M 250,795 L 282,795" fill="none" stroke="#8E44AD" stroke-width="2" /><path d="M 298,795 L 320,795" fill="none" stroke="#333" stroke-width="2" /><path d="M 210,140 L 300,140" fill="none" stroke="#E67E22" stroke-width="2" /><text fill="#E67E22" font-family="Segoe UI, Arial, sans-serif" font-size="9" font-weight="bold" text-anchor="middle" x="255" y="134">TX→RX</text><path d="M 300,180 L 260,180" fill="none" stroke="#E67E22" stroke-width="2" /><path d="M 228,186 L 232,174 L 236,186 L 240,174 L 244,186 L 248,174 L 252,186" fill="none" stroke="#444" stroke-width="2" /><text fill="#1A1A1A" font-family="Segoe UI, Arial, sans-serif" font-size="8" font-weight="bold" text-anchor="middle" x="240" y="194">R1</text><path d="M 240,180 L 240,220" fill="none" stroke="#E67E22" stroke-width="2" /><path d="M 228,206 L 232,194 L 236,206 L 240,194 L 244,206 L 248,194 L 252,206" fill="none" stroke="#444" stroke-width="2" /><text fill="#1A1A1A" font-family="Segoe UI, Arial, sans-serif" font-size="7" font-weight="bold" text-anchor="start" x="250" y="200">R2→GND</text><line stroke="#333" stroke-width="2" x1="232" x2="248" y1="220" y2="220" /><line stroke="#333" stroke-width="2" x1="236" x2="244" y1="225" y2="225" /><line stroke="#333" stroke-width="2" x1="240" x2="240" y1="230" y2="230" /><path d="M 240,180 L 210,180" fill="none" stroke="#E67E22" stroke-width="2" /><text fill="#E67E22" font-family="Segoe UI, Arial, sans-serif" font-size="8" font-weight="bold" text-anchor="middle" x="225" y="194">5V→3.3V</text><text fill="#1A1A1A" font-family="Segoe UI, Arial, sans-serif" font-size="7" font-weight="bold" text-anchor="end" x="225" y="172">1kΩ</text><text fill="#1A1A1A" font-family="Segoe UI, Arial, sans-serif" font-size="7" font-weight="bold" text-anchor="end" x="225" y="202">2kΩ</text><path d="M 800,240 L 840,240 L 840,240 L 1200,240" fill="none" stroke="#228B22" stroke-width="2" /><text fill="#228B22" font-family="Segoe UI, Arial, sans-serif" font-size="9" font-weight="bold" text-anchor="start" x="845" y="234">SDA→</text><path d="M 800,280 L 840,280 L 840,280 L 1200,280" fill="none" stroke="#228B22" stroke-width="2" /><text fill="#228B22" font-family="Segoe UI, Arial, sans-serif" font-size="9" font-weight="bold" text-anchor="start" x="845" y="294">SCL→</text><path d="M 658,940 L 658,975 L 295,975 L 295,150 L 800,150" fill="none" stroke="#DC143C" stroke-width="2" /><text fill="#DC143C" font-family="Segoe UI, Arial, sans-serif" font-size="9" font-weight="bold" text-anchor="middle" x="295" y="562">A0←Bat</text><path d="M 300,490 L 275,490 L 275,735 L 195,735" fill="none" stroke="#8E44AD" stroke-width="2" /><text fill="#8E44AD" font-family="Segoe UI, Arial, sans-serif" font-size="8" font-weight="bold" text-anchor="middle" x="275" y="612">D10→LED1</text><path d="M 300,540 L 275,540 L 275,795 L 195,795" fill="none" stroke="#8E44AD" stroke-width="2" /><text fill="#8E44AD" font-family="Segoe UI, Arial, sans-serif" font-size="8" font-weight="bold" text-anchor="middle" x="275" y="667">D13→LED2</text><path d="M 762,745 L 762,865 L 820,865 L 820,360 L 800,360" fill="none" stroke="#DC143C" stroke-dasharray="6,3" stroke-width="2" /><text fill="#DC143C" font-family="Segoe UI, Arial, sans-serif" font-size="9" font-weight="bold" text-anchor="middle" x="762" y="852">5V BEC→</text><path d="M 537,745 L 537,865 L 820,865 L 820,430 L 800,430" fill="none" stroke="#333" stroke-width="2" /><text fill="#333" font-family="Segoe UI, Arial, sans-serif" font-size="9" font-weight="bold" text-anchor="middle" x="537" y="852">GND</text><line stroke="#333" stroke-width="2" x1="529" x2="545" y1="875" y2="875" /><line stroke="#333" stroke-width="2" x1="533" x2="541" y1="880" y2="880" /><line stroke="#333" stroke-width="2" x1="537" x2="537" y1="885" y2="885" /><path d="M 800,360 L 815,360 L 815,265 L 225,265 L 225,258 L 180,258" fill="none" stroke="#DC143C" stroke-width="2" /><text fill="#DC143C" font-family="Segoe UI, Arial, sans-serif" font-size="9" font-weight="bold" text-anchor="middle" x="180" y="270">+5V</text><line stroke="#444" stroke-width="2" x1="70" x2="90" y1="246" y2="246" /><line stroke="#444" stroke-width="2" x1="70" x2="90" y1="258" y2="258" /><line stroke="#444" stroke-width="2" x1="74" x2="74" y1="246" y2="258" /><line stroke="#444" stroke-width="2" x1="86" x2="86" y1="246" y2="258" /><text fill="#1A1A1A" font-family="Segoe UI, Arial, sans-serif" font-size="7" font-weight="bold" text-anchor="end" x="75" y="270">C1</text><text fill="#1A1A1A" font-family="Segoe UI, Arial, sans-serif" font-size="7" font-weight="bold" text-anchor="start" x="85" y="270">100µF</text><text fill="#1A1A1A" font-family="Segoe UI, Arial, sans-serif" font-size="7" font-weight="bold" text-anchor="middle" x="80" y="280">+ cap 0.1µF</text><path d="M 800,430 L 815,430 L 815,272 L 210,272" fill="none" stroke="#333" stroke-width="2" /><text fill="#333" font-family="Segoe UI, Arial, sans-serif" font-size="8" font-weight="bold" text-anchor="middle" x="815" y="351">GND→ESP32</text><rect fill="#F9F9F9" height="30" rx="6" stroke="#2C3E50" stroke-width="1.5" width="1480" x="60" y="1005" /><text fill="#1A1A1A" font-family="Segoe UI, Arial, sans-serif" font-size="10" font-weight="bold" text-anchor="start" x="100" y="1025">LEYENDA:</text><line stroke="#DC143C" stroke-width="2.5" x1="200" x2="225" y1="1020" y2="1020" /><text fill="#1A1A1A" font-family="Segoe UI, Arial, sans-serif" font-size="9" font-weight="bold" text-anchor="start" x="230" y="1024">Alim.</text><line stroke="#333" stroke-width="2.5" x1="340" x2="365" y1="1020" y2="1020" /><text fill="#1A1A1A" font-family="Segoe UI, Arial, sans-serif" font-size="9" font-weight="bold" text-anchor="start" x="370" y="1024">Tierra</text><line stroke="#1E6EB8" stroke-width="2.5" x1="500" x2="525" y1="1020" y2="1020" /><text fill="#1A1A1A" font-family="Segoe UI, Arial, sans-serif" font-size="9" font-weight="bold" text-anchor="start" x="530" y="1024">PWM</text><line stroke="#228B22" stroke-width="2.5" x1="620" x2="645" y1="1020" y2="1020" /><text fill="#1A1A1A" font-family="Segoe UI, Arial, sans-serif" font-size="9" font-weight="bold" text-anchor="start" x="650" y="1024">I2C</text><line stroke="#E67E22" stroke-width="2.5" x1="740" x2="765" y1="1020" y2="1020" /><text fill="#1A1A1A" font-family="Segoe UI, Arial, sans-serif" font-size="9" font-weight="bold" text-anchor="start" x="770" y="1024">UART</text><line stroke="#8E44AD" stroke-width="2.5" x1="880" x2="905" y1="1020" y2="1020" /><text fill="#1A1A1A" font-family="Segoe UI, Arial, sans-serif" font-size="9" font-weight="bold" text-anchor="start" x="910" y="1024">GPIO</text></svg>