<?xml version="1.0" encoding="utf-8" ?>
<svg baseProfile="full" height="1050px" version="1.1" width="1600px" xmlns="http://www.w3.org/2000/svg" xmlns:ev="http://www.w3.org/2001/xml-events" xmlns:xlink="http://www.w3.org/1999/xlink"><defs /><rect fill="#FFFFFF" height="1050" width="1600" x="0" y="0" /><rect fill="none" height="1030" rx="4" ry="4" stroke="#2C3E50" stroke-width="1.5" width="1580" x="10" y="10" /><text fill="#1A1A1A" font-family="Segoe UI, Arial, sans-serif" font-size="26" font-weight="bold" text-anchor="middle" x="800" y="45">DRONE DESDE CERO v2 — DIAGRAMA DE CIRCUITO</text><rect fill="#FFF8E1" height="150" rx="6" ry="6" stroke="#2C3E50" stroke-width="2" width="220" x="70" y="80" /><text fill="#1A1A1A" font-family="Segoe UI, Arial, sans-serif" font-size="16" font-weight="bold" text-anchor="middle" x="180" y="108">ESP32-CAM (AI-Thinker)</text><text fill="#555" font-family="Segoe UI, Arial, sans-serif" font-size="13" text-anchor="middle" x="180" y="128">WiFi + Camera</text><rect fill="#E8F5E9" height="150" rx="6" ry="6" stroke="#2C3E50" stroke-width="2" width="230" x="1290" y="80" /><text fill="#1A1A1A" font-family="Segoe UI, Arial, sans-serif" font-size="16" font-weight="bold" text-anchor="middle" x="1405" y="108">MPU6500</text><text fill="#555" font-family="Segoe UI, Arial, sans-serif" font-size="13" text-anchor="middle" x="1405" y="128">6-DOF IMU (I2C)</text><rect fill="#E3F2FD" height="240" rx="6" ry="6" stroke="#2C3E50" stroke-width="2" width="760" x="370" y="340" /><text fill="#1A1A1A" font-family="Segoe UI, Arial, sans-serif" font-size="20" font-weight="bold" text-anchor="middle" x="750" y="368">ARDUINO UNO</text><text fill="#555" font-family="Segoe UI, Arial, sans-serif" font-size="13" text-anchor="middle" x="750" y="388">Flight Controller</text><rect fill="#FFEBEE" height="220" rx="6" ry="6" stroke="#2C3E50" stroke-width="2" width="250" x="70" y="680" /><text fill="#1A1A1A" font-family="Segoe UI, Arial, sans-serif" font-size="16" font-weight="bold" text-anchor="middle" x="195" y="708">BATERÍA 3S LiPo</text><text fill="#555" font-family="Segoe UI, Arial, sans-serif" font-size="13" text-anchor="middle" x="195" y="728">11.1V + Divisor de Voltaje</text><rect fill="#FFFDE7" height="190" rx="6" ry="6" stroke="#2C3E50" stroke-width="2" width="240" x="500" y="710" /><text fill="#1A1A1A" font-family="Segoe UI, Arial, sans-serif" font-size="16" font-weight="bold" text-anchor="middle" x="620" y="738">LEDs Indicadores</text><text fill="#555" font-family="Segoe UI, Arial, sans-serif" font-size="13" text-anchor="middle" x="620" y="758">Estado (armado/error)</text><rect fill="#F0F4F8" height="240" rx="8" ry="8" stroke="#5D6D7E" stroke-dasharray="6,3" stroke-width="1.5" width="640" x="900" y="690" /><text fill="#5D6D7E" font-family="Segoe UI, Arial, sans-serif" font-size="14" font-weight="bold" text-anchor="middle" x="1220" y="712">ESCs + MOTORES (Configuración X)</text><rect fill="#E0F7FA" height="75" rx="4" ry="4" stroke="#2C3E50" stroke-width="1.5" width="240" x="1240" y="725" /><text fill="#1A1A1A" font-family="Segoe UI, Arial, sans-serif" font-size="13" font-weight="bold" text-anchor="middle" x="1290" y="753">ESC1</text><text fill="#555" font-family="Segoe UI, Arial, sans-serif" font-size="11" text-anchor="middle" x="1290" y="775">FR • CW</text><circle cx="1430" cy="762" fill="#F5F5F5" r="16" stroke="#444" stroke-width="2" /><text fill="#1A1A1A" font-family="Segoe UI, Arial, sans-serif" font-size="10" font-weight="bold" text-anchor="middle" x="1430" y="766">M1</text><line stroke="#444" stroke-width="1.5" x1="1430" x2="1440.0" y1="762" y2="762.0" /><line stroke="#444" stroke-width="1.5" x1="1430" x2="1425.0" y1="762" y2="770.6602540378444" /><line stroke="#444" stroke-width="1.5" x1="1430" x2="1425.0" y1="762" y2="753.3397459621556" /><rect fill="#E0F7FA" height="75" rx="4" ry="4" stroke="#2C3E50" stroke-width="1.5" width="240" x="950" y="725" /><text fill="#1A1A1A" font-family="Segoe UI, Arial, sans-serif" font-size="13" font-weight="bold" text-anchor="middle" x="1000" y="753">ESC3</text><text fill="#555" font-family="Segoe UI, Arial, sans-serif" font-size="11" text-anchor="middle" x="1000" y="775">FL • CCW</text><circle cx="1140" cy="762" fill="#F5F5F5" r="16" stroke="#444" stroke-width="2" /><text fill="#1A1A1A" font-family="Segoe UI, Arial, sans-serif" font-size="10" font-weight="bold" text-anchor="middle" x="1140" y="766">M3</text><line stroke="#444" stroke-width="1.5" x1="1140" x2="1150.0" y1="762" y2="762.0" /><line stroke="#444" stroke-width="1.5" x1="1140" x2="1135.0" y1="762" y2="770.6602540378444" /><line stroke="#444" stroke-width="1.5" x1="1140" x2="1135.0" y1="762" y2="753.3397459621556" /><rect fill="#E0F7FA" height="75" rx="4" ry="4" stroke="#2C3E50" stroke-width="1.5" width="240" x="950" y="820" /><text fill="#1A1A1A" font-family="Segoe UI, Arial, sans-serif" font-size="13" font-weight="bold" text-anchor="middle" x="1000" y="848">ESC2</text><text fill="#555" font-family="Segoe UI, Arial, sans-serif" font-size="11" text-anchor="middle" x="1000" y="870">RL • CW</text><circle cx="1140" cy="857" fill="#F5F5F5" r="16" stroke="#444" stroke-width="2" /><text fill="#1A1A1A" font-family="Segoe UI, Arial, sans-serif" font-size="10" font-weight="bold" text-anchor="middle" x="1140" y="861">M2</text><line stroke="#444" stroke-width="1.5" x1="1140" x2="1150.0" y1="857" y2="857.0" /><line stroke="#444" stroke-width="1.5" x1="1140" x2="1135.0" y1="857" y2="865.6602540378444" /><line stroke="#444" stroke-width="1.5" x1="1140" x2="1135.0" y1="857" y2="848.3397459621556" /><rect fill="#E0F7FA" height="75" rx="4" ry="4" stroke="#2C3E50" stroke-width="1.5" width="240" x="1240" y="820" /><text fill="#1A1A1A" font-family="Segoe UI, Arial, sans-serif" font-size="13" font-weight="bold" text-anchor="middle" x="1290" y="848">ESC4</text><text fill="#555" font-family="Segoe UI, Arial, sans-serif" font-size="11" text-anchor="middle" x="1290" y="870">RR • CCW</text><circle cx="1430" cy="857" fill="#F5F5F5" r="16" stroke="#444" stroke-width="2" /><text fill="#1A1A1A" font-family="Segoe UI, Arial, sans-serif" font-size="10" font-weight="bold" text-anchor="middle" x="1430" y="861">M4</text><line stroke="#444" stroke-width="1.5" x1="1430" x2="1440.0" y1="857" y2="857.0" /><line stroke="#444" stroke-width="1.5" x1="1430" x2="1425.0" y1="857" y2="865.6602540378444" /><line stroke="#444" stroke-width="1.5" x1="1430" x2="1425.0" y1="857" y2="848.3397459621556" /><line stroke="#444" stroke-width="5" x1="183" x2="183" y1="721" y2="749" /><line stroke="#444" stroke-width="2.5" x1="207" x2="207" y1="725" y2="745" /><text fill="#DC143C" font-family="Segoe UI, Arial, sans-serif" font-size="12" x="175" y="740">+</text><text fill="#333333" font-family="Segoe UI, Arial, sans-serif" font-size="14" x="211" y="740">−</text><text fill="#DC143C" font-family="Segoe UI, Arial, sans-serif" font-size="11" x="85" y="770">+11.1V</text><path d="M 135,822 L 140,798 L 145,822 L 150,798 L 155,822 L 160,798 L 165,822" fill="none" stroke="#444" stroke-width="2" /><text fill="#1A1A1A" font-family="Segoe UI, Arial, sans-serif" font-size="10" x="140" y="830">R1</text><path d="M 205,877 L 210,853 L 215,877 L 220,853 L 225,877 L 230,853 L 235,877" fill="none" stroke="#444" stroke-width="2" /><text fill="#1A1A1A" font-family="Segoe UI, Arial, sans-serif" font-size="10" x="210" y="885">R2</text><text fill="#888" font-family="Segoe UI, Arial, sans-serif" font-size="10" text-anchor="middle" x="195" y="885">Ratio ~2.95:1</text><path d="M 183,730 L 183,798 L 135,798 L 135,798" fill="none" stroke="#DC143C" stroke-width="2" /><path d="M 207,730 L 207,850 L 290,850" fill="none" stroke="#333333" stroke-width="2" /><path d="M 165,810 L 290,810" fill="none" stroke="#DC143C" stroke-width="2" /><path d="M 205,865 L 165,810" fill="none" stroke="#DC143C" stroke-width="2" /><path d="M 235,865 L 290,865" fill="none" stroke="#333333" stroke-width="2" /><circle cx="320" cy="810" fill="#DC143C" r="3" /><path d="M 528,775 L 532,755 L 536,775 L 540,755 L 544,775 L 548,755 L 552,775" fill="none" stroke="#444" stroke-width="2" /><text fill="#1A1A1A" font-family="Segoe UI, Arial, sans-serif" font-size="9" text-anchor="middle" x="540" y="785">220Ω</text><polygon fill="#E74C3C" points="580,760 580,770 600,765" stroke="#444" stroke-width="1.5" /><line stroke="#444" stroke-width="2.5" x1="598" x2="598" y1="760" y2="770" /><line stroke="#444" stroke-width="1.5" x1="604" x2="610" y1="755" y2="751" /><line stroke="#444" stroke-width="1.5" x1="605" x2="612" y1="761" y2="759" /><polygon fill="#444" points="610,751 607,748 613,749" /><polygon fill="#444" points="612,759 609,756 615,757" /><text fill="#1A1A1A" font-family="Segoe UI, Arial, sans-serif" font-size="10" x="595" y="790">Rojo 1</text><text fill="#1A1A1A" font-family="Segoe UI, Arial, sans-serif" font-size="9" x="465" y="769">Pin 10</text><path d="M 495,765 L 528,765" fill="none" stroke="#8E44AD" stroke-width="2" /><path d="M 552,765 L 580,765" fill="none" stroke="#8E44AD" stroke-width="2" /><path d="M 598,765 L 680,765" fill="none" stroke="#333333" stroke-width="2" /><line stroke="#333333" stroke-width="2" x1="670" x2="690" y1="765" y2="765" /><line stroke="#333333" stroke-width="2" x1="674" x2="686" y1="770" y2="770" /><line stroke="#333333" stroke-width="2" x1="678" x2="682" y1="775" y2="775" /><path d="M 528,840 L 532,820 L 536,840 L 540,820 L 544,840 L 548,820 L 552,840" fill="none" stroke="#444" stroke-width="2" /><text fill="#1A1A1A" font-family="Segoe UI, Arial, sans-serif" font-size="9" text-anchor="middle" x="540" y="850">220Ω</text><polygon fill="#E74C3C" points="580,825 580,835 600,830" stroke="#444" stroke-width="1.5" /><line stroke="#444" stroke-width="2.5" x1="598" x2="598" y1="825" y2="835" /><line stroke="#444" stroke-width="1.5" x1="604" x2="610" y1="820" y2="816" /><line stroke="#444" stroke-width="1.5" x1="605" x2="612" y1="826" y2="824" /><polygon fill="#444" points="610,816 607,813 613,814" /><polygon fill="#444" points="612,824 609,821 615,822" /><text fill="#1A1A1A" font-family="Segoe UI, Arial, sans-serif" font-size="10" x="595" y="855">Rojo 2</text><text fill="#1A1A1A" font-family="Segoe UI, Arial, sans-serif" font-size="9" x="465" y="834">Pin 13</text><path d="M 495,830 L 528,830" fill="none" stroke="#8E44AD" stroke-width="2" /><path d="M 552,830 L 580,830" fill="none" stroke="#8E44AD" stroke-width="2" /><path d="M 598,830 L 680,830" fill="none" stroke="#333333" stroke-width="2" /><line stroke="#333333" stroke-width="2" x1="670" x2="690" y1="830" y2="830" /><line stroke="#333333" stroke-width="2" x1="674" x2="686" y1="835" y2="835" /><line stroke="#333333" stroke-width="2" x1="678" x2="682" y1="840" y2="840" /><text fill="#1A1A1A" font-family="Segoe UI, Arial, sans-serif" font-size="10" font-weight="bold" text-anchor="end" x="286" y="129">TX (GPIO1)</text><text fill="#1A1A1A" font-family="Segoe UI, Arial, sans-serif" font-size="10" font-weight="bold" text-anchor="end" x="286" y="169">RX (GPIO3)</text><text fill="#1A1A1A" font-family="Segoe UI, Arial, sans-serif" font-size="10" font-weight="bold" text-anchor="middle" x="134" y="234">5V</text><text fill="#1A1A1A" font-family="Segoe UI, Arial, sans-serif" font-size="10" font-weight="bold" text-anchor="middle" x="224" y="234">GND</text><text fill="#1A1A1A" font-family="Segoe UI, Arial, sans-serif" font-size="10" font-weight="bold" text-anchor="start" x="1294" y="129">SCL</text><text fill="#1A1A1A" font-family="Segoe UI, Arial, sans-serif" font-size="10" font-weight="bold" text-anchor="start" x="1294" y="169">SDA</text><text fill="#1A1A1A" font-family="Segoe UI, Arial, sans-serif" font-size="10" font-weight="bold" text-anchor="middle" x="1364" y="234">VCC</text><text fill="#1A1A1A" font-family="Segoe UI, Arial, sans-serif" font-size="10" font-weight="bold" text-anchor="middle" x="1444" y="234">GND</text><text fill="#1A1A1A" font-family="Segoe UI, Arial, sans-serif" font-size="10" font-weight="bold" text-anchor="start" x="374" y="394">RX (D0)</text><text fill="#1A1A1A" font-family="Segoe UI, Arial, sans-serif" font-size="10" font-weight="bold" text-anchor="start" x="374" y="429">TX (D1)</text><text fill="#1A1A1A" font-family="Segoe UI, Arial, sans-serif" font-size="10" font-weight="bold" text-anchor="start" x="374" y="474">A0</text><text fill="#1A1A1A" font-family="Segoe UI, Arial, sans-serif" font-size="10" font-weight="bold" text-anchor="start" x="374" y="519">5V</text><text fill="#1A1A1A" font-family="Segoe UI, Arial, sans-serif" font-size="10" font-weight="bold" text-anchor="start" x="374" y="559">GND</text><circle cx="425" cy="580" fill="#2C3E50" r="3" /><text fill="#1A1A1A" font-family="Segoe UI, Arial, sans-serif" font-size="10" font-weight="bold" text-anchor="middle" x="429" y="589">Pin 3</text><circle cx="495" cy="580" fill="#2C3E50" r="3" /><text fill="#1A1A1A" font-family="Segoe UI, Arial, sans-serif" font-size="10" font-weight="bold" text-anchor="middle" x="499" y="589">Pin 5</text><circle cx="565" cy="580" fill="#2C3E50" r="3" /><text fill="#1A1A1A" font-family="Segoe UI, Arial, sans-serif" font-size="10" font-weight="bold" text-anchor="middle" x="569" y="589">Pin 6</text><circle cx="635" cy="580" fill="#2C3E50" r="3" /><text fill="#1A1A1A" font-family="Segoe UI, Arial, sans-serif" font-size="10" font-weight="bold" text-anchor="middle" x="639" y="589">Pin 9</text><circle cx="720" cy="580" fill="#2C3E50" r="3" /><text fill="#1A1A1A" font-family="Segoe UI, Arial, sans-serif" font-size="10" font-weight="bold" text-anchor="middle" x="724" y="589">Pin 10</text><circle cx="800" cy="580" fill="#2C3E50" r="3" /><text fill="#1A1A1A" font-family="Segoe UI, Arial, sans-serif" font-size="10" font-weight="bold" text-anchor="middle" x="804" y="589">Pin 13</text><text fill="#1A1A1A" font-family="Segoe UI, Arial, sans-serif" font-size="10" font-weight="bold" text-anchor="end" x="1126" y="409">A4 (SDA)</text><text fill="#1A1A1A" font-family="Segoe UI, Arial, sans-serif" font-size="10" font-weight="bold" text-anchor="end" x="1126" y="464">A5 (SCL)</text><path d="M 290,125 L 320,125 L 320,390 L 370,390" fill="none" stroke="#E67E22" stroke-width="2" /><text fill="#E67E22" font-family="Segoe UI, Arial, sans-serif" font-size="10" font-weight="bold" text-anchor="start" x="295" y="117">TX →</text><path d="M 290,165 L 320,165 L 320,425 L 370,425" fill="none" stroke="#E67E22" stroke-width="2" /><text fill="#E67E22" font-family="Segoe UI, Arial, sans-serif" font-size="10" font-weight="bold" text-anchor="start" x="295" y="157">RX →</text><path d="M 1290,125 L 1210,125 L 1210,460 L 1130,460" fill="none" stroke="#228B22" stroke-width="2" /><text fill="#228B22" font-family="Segoe UI, Arial, sans-serif" font-size="10" font-weight="bold" text-anchor="end" x="1285" y="117">SCL</text><path d="M 1290,165 L 1210,165 L 1210,405 L 1130,405" fill="none" stroke="#228B22" stroke-width="2" /><text fill="#228B22" font-family="Segoe UI, Arial, sans-serif" font-size="10" font-weight="bold" text-anchor="end" x="1285" y="157">SDA</text><path d="M 320,810 L 350,810 L 350,470 L 370,470" fill="none" stroke="#DC143C" stroke-width="2" /><text fill="#DC143C" font-family="Segoe UI, Arial, sans-serif" font-size="10" font-weight="bold" text-anchor="start" x="325" y="802">A0 →</text><path d="M 1070,800 L 1070,830 L 430,830 L 430,515 L 370,515" fill="none" stroke="#DC143C" stroke-width="2" /><text fill="#DC143C" font-family="Segoe UI, Arial, sans-serif" font-size="10" font-weight="bold" text-anchor="start" x="375" y="507">5V BEC</text><path d="M 1030,800 L 1030,840 L 510,840 L 510,555 L 370,555" fill="none" stroke="#333333" stroke-width="2" /><text fill="#333333" font-family="Segoe UI, Arial, sans-serif" font-size="10" font-weight="bold" text-anchor="start" x="375" y="547">GND</text><path d="M 425,580 L 425,615 L 1360,615 L 1360,725" fill="none" stroke="#1E6EB8" stroke-width="2" /><text fill="#1E6EB8" font-family="Segoe UI, Arial, sans-serif" font-size="10" font-weight="bold" text-anchor="middle" x="425" y="592">Pin 3 → ESC1</text><path d="M 495,580 L 495,630 L 1070,630 L 1070,820" fill="none" stroke="#1E6EB8" stroke-width="2" /><text fill="#1E6EB8" font-family="Segoe UI, Arial, sans-serif" font-size="10" font-weight="bold" text-anchor="middle" x="495" y="592">Pin 5 → ESC2</text><path d="M 565,580 L 565,615 L 1070,615 L 1070,725" fill="none" stroke="#1E6EB8" stroke-width="2" /><text fill="#1E6EB8" font-family="Segoe UI, Arial, sans-serif" font-size="10" font-weight="bold" text-anchor="middle" x="565" y="592">Pin 6 → ESC3</text><path d="M 635,580 L 635,630 L 1360,630 L 1360,820" fill="none" stroke="#1E6EB8" stroke-width="2" /><text fill="#1E6EB8" font-family="Segoe UI, Arial, sans-serif" font-size="10" font-weight="bold" text-anchor="middle" x="635" y="592">Pin 9 → ESC4</text><path d="M 720,580 L 720,610 L 495,610 L 495,765" fill="none" stroke="#8E44AD" stroke-width="2" /><text fill="#8E44AD" font-family="Segoe UI, Arial, sans-serif" font-size="10" font-weight="bold" text-anchor="middle" x="720" y="592">Pin 10 → LED1</text><path d="M 800,580 L 800,610 L 495,610 L 495,830" fill="none" stroke="#8E44AD" stroke-width="2" /><text fill="#8E44AD" font-family="Segoe UI, Arial, sans-serif" font-size="10" font-weight="bold" text-anchor="middle" x="800" y="592">Pin 13 → LED2</text><path d="M 290,875 L 290,920" fill="none" stroke="#333333" stroke-width="2" /><line stroke="#333333" stroke-width="2" x1="280" x2="300" y1="920" y2="920" /><line stroke="#333333" stroke-width="2" x1="284" x2="296" y1="925" y2="925" /><line stroke="#333333" stroke-width="2" x1="288" x2="292" y1="930" y2="930" /><path d="M 720,900 L 720,915" fill="none" stroke="#333333" stroke-width="2" /><line stroke="#333333" stroke-width="2" x1="710" x2="730" y1="915" y2="915" /><line stroke="#333333" stroke-width="2" x1="714" x2="726" y1="920" y2="920" /><line stroke="#333333" stroke-width="2" x1="718" x2="722" y1="925" y2="925" /><path d="M 1360,230 L 1360,250 L 1360,300" fill="none" stroke="#DC143C" stroke-dasharray="6,3" stroke-width="2" /><text fill="#DC143C" font-family="Segoe UI, Arial, sans-serif" font-size="10" font-weight="bold" text-anchor="middle" x="1360" y="255">a +5V</text><path d="M 130,230 L 130,245" fill="none" stroke="#DC143C" stroke-width="2" /><text fill="#DC143C" font-family="Segoe UI, Arial, sans-serif" font-size="10" font-weight="bold" text-anchor="middle" x="130" y="248">+5V</text><path d="M 220,230 L 220,245" fill="none" stroke="#333333" stroke-width="2" /><line stroke="#333333" stroke-width="2" x1="210" x2="230" y1="245" y2="245" /><line stroke="#333333" stroke-width="2" x1="214" x2="226" y1="250" y2="250" /><line stroke="#333333" stroke-width="2" x1="218" x2="222" y1="255" y2="255" /><path d="M 1440,230 L 1440,250" fill="none" stroke="#333333" stroke-width="2" /><line stroke="#333333" stroke-width="2" x1="1430" x2="1450" y1="250" y2="250" /><line stroke="#333333" stroke-width="2" x1="1434" x2="1446" y1="255" y2="255" /><line stroke="#333333" stroke-width="2" x1="1438" x2="1442" y1="260" y2="260" /><path d="M 183,730 L 135,798 L 135,810" fill="none" stroke="#DC143C" stroke-width="2" /><path d="M 207,730 L 207,850 L 290,850" fill="none" stroke="#333333" stroke-width="2" /><path d="M 165,810 L 320,810" fill="none" stroke="#DC143C" stroke-width="2" /><circle cx="317" cy="810" fill="#DC143C" r="3" /><path d="M 165,810 L 205,865" fill="none" stroke="#DC143C" stroke-width="2" /><path d="M 235,865 L 290,865 L 290,850" fill="none" stroke="#333333" stroke-width="2" /><rect fill="#F9F9F9" height="70" rx="6" ry="6" stroke="#2C3E50" stroke-width="1.5" width="1480" x="60" y="960" /><text fill="#1A1A1A" font-family="Segoe UI, Arial, sans-serif" font-size="14" font-weight="bold" text-anchor="middle" x="180" y="988">L E Y E N D A</text><line stroke="#DC143C" stroke-width="3" x1="200" x2="240" y1="995" y2="995" /><text fill="#1A1A1A" font-family="Segoe UI, Arial, sans-serif" font-size="12" x="248" y="999">Alimentación (VCC, 5V, Batería +)</text><line stroke="#333333" stroke-width="3" x1="440" x2="480" y1="995" y2="995" /><text fill="#1A1A1A" font-family="Segoe UI, Arial, sans-serif" font-size="12" x="488" y="999">Tierra (GND)</text><line stroke="#1E6EB8" stroke-width="3" x1="640" x2="680" y1="995" y2="995" /><text fill="#1A1A1A" font-family="Segoe UI, Arial, sans-serif" font-size="12" x="688" y="999">PWM (ESCs)</text><line stroke="#228B22" stroke-width="3" x1="840" x2="880" y1="995" y2="995" /><text fill="#1A1A1A" font-family="Segoe UI, Arial, sans-serif" font-size="12" x="888" y="999">I2C (SDA, SCL)</text><line stroke="#E67E22" stroke-width="3" x1="1040" x2="1080" y1="995" y2="995" /><text fill="#1A1A1A" font-family="Segoe UI, Arial, sans-serif" font-size="12" x="1088" y="999">UART (TX, RX)</text><line stroke="#8E44AD" stroke-width="3" x1="1240" x2="1280" y1="995" y2="995" /><text fill="#1A1A1A" font-family="Segoe UI, Arial, sans-serif" font-size="12" x="1288" y="999">GPIO (LEDs)</text></svg>